<svg width="683" height="683" viewBox="0 0 683 683" fill="none" xmlns="http://www.w3.org/2000/svg">
<path d="M661.804 285.257L621.035 158.638C618.635 151.184 609.437 148.554 603.459 153.612L602.264 154.623C598.791 157.561 597.485 162.335 598.979 166.632L629.659 254.883C632.657 263.506 624.451 271.817 615.79 268.93L578.419 256.473C572.108 254.369 565.388 258.306 564.137 264.84L563.922 265.962C562.838 271.621 566.305 277.158 571.87 278.654L648.477 299.251C656.895 301.514 664.476 293.554 661.804 285.257Z" fill="#3A98FF"/>
<path fill-rule="evenodd" clip-rule="evenodd" d="M49.8885 98.8212C64.3306 119.617 123.813 208.303 125.672 212.09L181.526 295.224C182.461 296.616 183.766 297.661 185.337 298.249C239.364 318.461 350.855 365.043 421.117 392.239C453.156 404.64 463.964 405.513 469.5 405.514C476.512 404.874 485.857 402.501 485 398.5C484.572 396.714 479.311 384.29 464.297 362.279C449.426 340.269 435.556 319.687 433.555 316.543C431.553 313.399 423.689 301.821 416.11 290.816C408.532 279.811 381.078 239.291 355.197 200.773C321.738 151.034 307.296 130.381 305.293 129.523C303.719 128.879 281.256 124.153 255.502 118.997C229.748 113.912 202.277 108.398 194.408 106.822C186.538 105.175 163.074 100.52 142.184 96.3662C121.295 92.2839 94.1099 86.8412 81.6621 84.2633C56.6235 79.1787 53.1893 79.0342 46.6053 82.7458C42.025 85.3868 42.5959 88.4589 49.8885 98.8212ZM82.7593 100.116C81.6366 99.9104 81.3161 100.323 81.9235 101.289C89.8265 113.863 150.603 203.939 154.864 209.461L206.572 288.64C207.491 290.047 208.83 291.13 210.4 291.733L430.413 376.301C437.889 379.175 444.48 370.498 439.707 364.066L390.207 297.376L361.61 254.855C346.024 231.558 322.145 196.113 308.847 176.246L286.381 142.759C285.202 141.001 283.374 139.783 281.297 139.37L182.954 119.818C133.321 109.945 91.4992 101.714 82.7593 100.116Z" fill="#3A98FF"/>
<path d="M41.5335 642.588L7.39173 558.576C5.20436 553.194 7.57994 547.038 12.8161 544.521L19.5552 541.281C25.0425 538.643 31.6291 540.964 34.25 546.46L53.7327 587.31C57.0206 594.205 66.1616 595.732 71.5118 590.28L164.732 495.301C165.895 494.116 167.313 493.209 168.877 492.65L178.116 489.344C188.987 485.454 197.744 498.802 189.846 507.225L59.7483 645.971C54.2601 651.824 44.5543 650.021 41.5335 642.588Z" fill="#3A98FF"/>
<path d="M588 148.667C549.2 162.133 383.733 217.6 376.667 219.333C360.4 223.6 354.8 228.933 356.667 238.267C358.667 248.933 367.867 252 381.6 246.533C392.064 242.499 565.237 184.109 584.413 178.21C585.6 177.845 585.967 178.335 585.539 179.501C582.389 188.075 567.166 226.791 548.933 272.667L512.704 363.882C511.835 366.071 510.045 367.765 507.812 368.514L443.733 390C406.667 402.4 340.533 424.667 297.067 439.2L222.259 464.345C219.471 465.282 216.394 464.614 214.246 462.605L153.867 406.133C118.8 373.2 89.8666 345.867 89.5999 345.333C89.1999 344.4 188.267 310.533 196.667 308.667C205.467 306.8 211.2 299.333 209.733 291.733C208.8 287.067 203.6 281.867 199.2 280.933C195.467 280.267 188.4 281.733 182 284.8C178.533 286.4 56.3999 328 55.1999 328C52.6666 328 47.1999 349.067 25.9999 440.8C8.79994 514.533 1.46661 548.667 1.99994 551.6C3.19994 558.133 8.53328 561.733 15.9999 560.933C19.3333 560.533 55.5999 548.933 96.6666 534.933C137.733 521.067 176.133 508.133 182 506.267C187.867 504.4 209.467 497.067 230 490C250.533 482.933 326.133 457.333 398 433.2C490.8 402 529.333 388.533 530.933 386.667C532.133 385.2 540.933 364.267 550.533 340.267C560 316.267 570.267 290.667 573.2 283.333C576.267 276 584.933 254.133 592.667 234.667C600.267 215.2 610.4 189.867 615.2 178.267C624.667 154.933 624.933 151.733 618 145.6C613.067 141.333 607.333 141.867 588 148.667ZM133.733 423.2C160.413 448.249 182.715 469.327 187.831 474.427C188.586 475.179 188.51 475.789 187.507 476.15C171.905 481.763 33.9785 527.712 33.5999 527.333C33.1999 526.933 68.5333 371.467 70.1333 366.933C70.9333 364.4 71.1999 364.667 133.733 423.2Z" fill="#283954"/>
</svg>
