<svg width="24.000000" height="24.000000" viewBox="0 0 24 24" fill="none" xmlns="http://www.w3.org/2000/svg" xmlns:xlink="http://www.w3.org/1999/xlink">
	<desc>
			Created with Pixso.
	</desc>
	<defs>
		<clipPath id="clip4_3386">
			<rect id="Outline / Arrows Action / Logout 3" rx="4.500000" width="23.000000" height="23.000000" transform="translate(0.500000 0.500000)" fill="white" fill-opacity="0"/>
		</clipPath>
	</defs>
	<g clip-path="url(#clip4_3386)">
		<path id="Vector" d="M15.05 1.25L13.94 1.25C12.57 1.25 11.47 1.25 10.6 1.36C9.7 1.48 8.95 1.74 8.34 2.34C7.94 2.74 7.7 3.21 7.54 3.75C6.59 3.75 5.79 3.76 5.15 3.84C4.39 3.95 3.73 4.17 3.2 4.7C2.67 5.23 2.45 5.89 2.34 6.65C2.25 7.38 2.25 8.31 2.25 9.44L2.25 14.55C2.25 15.68 2.25 16.61 2.34 17.34C2.45 18.1 2.67 18.76 3.2 19.29C3.73 19.82 4.39 20.04 5.15 20.15C5.79 20.23 6.59 20.24 7.54 20.24C7.7 20.78 7.94 21.25 8.34 21.65C8.95 22.25 9.7 22.51 10.6 22.63C11.47 22.75 12.57 22.75 13.94 22.75L15.05 22.75C16.42 22.75 17.52 22.75 18.39 22.63C19.29 22.51 20.04 22.25 20.65 21.65C21.25 21.04 21.51 20.29 21.63 19.39C21.75 18.52 21.75 17.42 21.75 16.05L21.75 7.94C21.75 6.57 21.75 5.47 21.63 4.6C21.51 3.7 21.25 2.95 20.65 2.34C20.04 1.74 19.29 1.48 18.39 1.36C17.52 1.25 16.42 1.25 15.05 1.25L15.05 1.25ZM7.3 18.74C7.26 18.22 7.25 17.64 7.25 17C7.24 16.59 7.58 16.25 7.99 16.25C8.41 16.24 8.74 16.58 8.75 16.99C8.75 18.08 8.78 18.86 8.89 19.45C8.99 20.01 9.16 20.34 9.4 20.59C9.68 20.86 10.07 21.04 10.8 21.14C11.56 21.24 12.56 21.25 14 21.25L15 21.25C16.43 21.25 17.43 21.24 18.19 21.14C18.92 21.04 19.31 20.86 19.59 20.59C19.86 20.31 20.04 19.92 20.14 19.19C20.24 18.43 20.25 17.43 20.25 16L20.25 8C20.25 6.56 20.24 5.56 20.14 4.8C20.04 4.07 19.86 3.68 19.59 3.4C19.31 3.13 18.92 2.95 18.19 2.85C17.43 2.75 16.43 2.75 15 2.75L14 2.75C12.56 2.75 11.56 2.75 10.8 2.85C10.07 2.95 9.68 3.13 9.4 3.4C9.16 3.65 8.99 3.98 8.89 4.54C8.78 5.13 8.75 5.91 8.75 7C8.74 7.41 8.41 7.75 7.99 7.75C7.58 7.74 7.24 7.41 7.25 6.99C7.25 6.35 7.26 5.77 7.3 5.25C6.46 5.25 5.84 5.26 5.35 5.33C4.75 5.41 4.46 5.55 4.26 5.76C4.05 5.96 3.91 6.25 3.83 6.85C3.75 7.47 3.75 8.3 3.75 9.5L3.75 14.5C3.75 15.69 3.75 16.52 3.83 17.14C3.91 17.74 4.05 18.03 4.26 18.23C4.46 18.44 4.75 18.58 5.35 18.66C5.84 18.73 6.46 18.74 7.3 18.74ZM5.46 11.46C5.17 11.76 5.17 12.23 5.46 12.53L7.46 14.53C7.76 14.82 8.23 14.82 8.53 14.53C8.82 14.23 8.82 13.76 8.53 13.46L7.81 12.75L15 12.75C15.41 12.75 15.75 12.41 15.75 12C15.75 11.58 15.41 11.25 15 11.25L7.81 11.25L8.53 10.53C8.82 10.23 8.82 9.76 8.53 9.46C8.23 9.17 7.76 9.17 7.46 9.46L5.46 11.46Z" fill="#FFFFFF" fill-opacity="1.000000" fill-rule="evenodd"/>
	</g>
</svg>
